# xmcd CD database file
#
# Track frame offsets:
#	150
#	15729
#	40563
#	56296
#	79691
#	92947
#	102933
#	120787
#	136668
#	159267
#	165142
#	183576
#
# Disc length: 2812 seconds
#
# Revision: 0
# Processed by: cddbd v1.5.1PL0 Copyright (c) Steve Scherf et al.
# Submitted via: CDex 1.51
#
DISCID=7a0afa0c
DTITLE=Wolfgang Mitschke - Latin In New York
DYEAR=2003
DGENRE=Jazz
TTITLE0=No More Blues
TTITLE1=I Love You
TTITLE2=Latin In New York
TTITLE3=There Is No Greater Love
TTITLE4=From Sydney To Berlin
TTITLE5=Streetwalkin'
TTITLE6=Funky Lines For Anja
TTITLE7=Tribute To George Duke
TTITLE8=Acid Jazz Vibes
TTITLE9=Flute Intermezzo
TTITLE10=Stella By Starlight
TTITLE11=Sundance
EXTD=YEAR: 2003
EXTT0=
EXTT1=
EXTT2=
EXTT3=
EXTT4=
EXTT5=
EXTT6=
EXTT7=
EXTT8=
EXTT9=
EXTT10=
EXTT11=
PLAYORDER=
